<svg xmlns="http://www.w3.org/2000/svg" viewBox="0 0 900 280" role="img" aria-labelledby="title desc">
  <title id="title">Pub Quiz Team Name Generator</title>
  <desc id="desc">Mobile-safe purple and orange banner for the Pub Quiz Team Name Generator.</desc>
  <defs>
    <linearGradient id="bg" x1="0" y1="0" x2="1" y2="1"><stop stop-color="#32105f"/><stop offset=".58" stop-color="#6513a2"/><stop offset="1" stop-color="#b2147c"/></linearGradient>
    <linearGradient id="orange" x1="0" y1="0" x2="1" y2="0"><stop stop-color="#ffb000"/><stop offset="1" stop-color="#ff6a00"/></linearGradient>
    <filter id="shadow" x="-20%" y="-20%" width="140%" height="140%"><feDropShadow dx="0" dy="5" stdDeviation="5" flood-color="#190028" flood-opacity=".28"/></filter>
  </defs>
  <rect width="900" height="280" rx="24" fill="url(#bg)"/>
  <path d="M0 240C170 185 280 270 450 222s300-75 450-142v200H0z" fill="#25104d" opacity=".65"/>
  <g font-family="Arial,Helvetica,sans-serif">
    <text x="34" y="77" fill="#fff" font-size="48" font-weight="900">PUB QUIZ</text>
    <text x="34" y="135" fill="#ffd234" font-size="55" font-weight="900">TEAM NAMES</text>
    <text x="36" y="181" fill="#f5e8ff" font-size="27" font-weight="800">Funny, clever, memorable</text>
    <g transform="translate(36 207)">
      <rect width="230" height="48" rx="16" fill="url(#orange)"/>
      <text x="115" y="32" text-anchor="middle" fill="#fff" font-size="22" font-weight="900">Generate now →</text>
    </g>
    <g transform="translate(672 52)" filter="url(#shadow)">
      <path d="M36 0h116v46c0 45-29 78-58 88v27h34v23H60v-23h34v-27c-29-10-58-43-58-88z" fill="#ffb400" stroke="#ffdf5a" stroke-width="6"/>
      <path d="M36 25H8c0 44 23 63 49 66M152 25h28c0 44-23 63-49 66" fill="none" stroke="#ffdf5a" stroke-width="10" stroke-linecap="round"/>
      <circle cx="94" cy="65" r="22" fill="#fff2a3"/>
    </g>
  </g>
</svg>